<?xml version="1.0" standalone="no"?>
<!DOCTYPE svg PUBLIC "-//W3C//DTD SVG 20010904//EN"
 "http://www.w3.org/TR/2001/REC-SVG-20010904/DTD/svg10.dtd">
<svg version="1.0" xmlns="http://www.w3.org/2000/svg"
 width="414.000000pt" height="414.000000pt" viewBox="0 0 414.000000 414.000000"
 preserveAspectRatio="xMidYMid meet">
<metadata>
Created by potrace 1.14, written by Peter Selinger 2001-2017
</metadata>
<g transform="translate(0.000000,414.000000) scale(0.100000,-0.100000)"
fill="#000000" stroke="none">
<path d="M1960 4079 c-58 -34 -118 -69 -135 -79 -16 -9 -118 -68 -225 -130
-107 -62 -211 -121 -230 -132 -80 -46 -437 -253 -465 -269 -16 -11 -37 -22
-45 -26 -8 -4 -62 -35 -120 -68 -58 -34 -185 -108 -282 -164 -98 -57 -178
-106 -179 -110 -4 -25 -3 -1875 1 -1886 4 -10 28 1 93 41 49 30 90 54 93 54 2
0 23 12 47 27 23 15 51 33 62 39 11 6 65 38 120 71 55 33 303 181 550 328 658
392 1058 631 1158 691 49 30 90 54 92 54 2 0 58 34 125 75 67 41 124 75 127
75 2 0 36 20 74 45 38 25 72 45 75 45 2 0 21 11 42 24 39 25 830 497 847 506
27 13 311 184 320 192 9 8 -30 -6 -100 -37 -37 -16 -386 -164 -510 -215 -49
-21 -405 -170 -790 -333 -385 -162 -799 -336 -920 -387 -121 -50 -227 -95
-236 -100 -9 -4 -56 -25 -105 -45 -49 -20 -102 -43 -119 -50 -16 -8 -118 -50
-225 -95 -107 -45 -201 -84 -207 -87 -10 -4 -13 62 -13 311 l0 316 38 23 c20
13 57 35 82 49 49 27 415 238 495 285 28 16 57 32 65 36 8 4 29 16 45 26 36
22 332 193 395 229 25 13 50 28 55 33 6 4 109 -49 235 -123 124 -71 235 -134
247 -140 17 -9 58 4 230 72 114 45 244 97 288 115 44 18 108 44 143 56 34 13
62 26 62 30 0 5 -437 260 -590 345 -87 48 -148 83 -253 146 -55 32 -101 58
-103 58 -2 0 -50 27 -106 60 -113 67 -136 80 -140 80 -2 0 -50 -28 -108 -61z"/>
<path d="M3690 2844 c-85 -52 -198 -119 -250 -150 -52 -30 -169 -100 -259
-154 -91 -55 -166 -100 -167 -100 -2 0 -94 -54 -184 -109 -67 -41 -301 -181
-334 -200 -23 -13 -84 -49 -136 -81 -52 -31 -297 -178 -545 -325 -390 -232
-615 -367 -690 -412 -11 -7 -27 -15 -35 -19 -8 -4 -26 -15 -40 -25 -23 -16
-516 -310 -585 -349 -16 -9 -79 -47 -139 -83 -59 -37 -110 -67 -111 -67 -5 0
-167 -99 -174 -106 -3 -3 6 -1 19 4 31 12 441 184 495 208 22 9 54 23 70 29
17 7 176 74 355 150 179 75 408 172 510 215 102 43 356 150 566 238 209 88
425 179 480 202 54 23 113 48 129 55 17 7 75 32 130 55 55 23 114 47 130 55
17 7 86 36 155 65 69 29 137 58 153 65 l27 13 0 -318 0 -318 -142 -82 c-79
-46 -163 -94 -188 -108 -25 -14 -156 -90 -292 -169 -136 -78 -262 -151 -280
-162 -18 -10 -89 -51 -157 -90 -68 -39 -127 -71 -131 -71 -3 0 -111 61 -240
136 -129 75 -240 137 -246 137 -15 1 -704 -276 -704 -282 0 -5 358 -213 569
-332 149 -84 508 -291 561 -324 47 -29 66 -35 76 -25 5 4 142 84 304 177 162
94 441 255 620 358 179 104 352 204 385 222 33 19 76 43 95 55 19 11 109 63
200 115 91 53 167 97 169 99 5 5 7 1838 2 1877 -2 15 -6 27 -10 26 -3 0 -76
-43 -161 -95z"/>
</g>
</svg>
